<svg width="513" height="512" viewBox="0 0 513 512" fill="none" xmlns="http://www.w3.org/2000/svg">
<rect width="512" height="512" transform="translate(0.0939941)" fill="#0D8BD2"/>
<path d="M314.916 375.594H289.769C284.89 375.594 280.987 379.498 280.987 384.377V409.523C280.987 414.402 284.89 418.306 289.769 418.306H314.916C319.795 418.306 323.698 414.402 323.698 409.523V384.377C323.698 379.573 319.72 375.594 314.916 375.594Z" fill="white"/>
<path d="M445.978 411.025C445.603 408.623 443.801 407.046 441.249 406.746C439.973 406.596 438.622 406.596 437.345 406.596C436.295 406.596 435.244 406.596 434.193 406.596V158.133C434.193 131.26 416.177 107.765 390.28 100.784L362.732 93.353C356.727 91.7016 350.796 96.2805 350.796 102.511V125.781C307.034 113.996 337.36 123.078 294.048 111.594C271.228 105.513 249.46 117.674 242.479 140.268C240.677 146.123 239.176 152.128 237.525 158.434C299.753 175.098 287.893 170.819 350.796 187.859V406.521C339.237 406.145 338.036 408.998 338.786 418.381H446.128C446.053 415.829 446.353 413.352 445.978 411.025Z" fill="#1D2140"/>
<path d="M293.222 190.562C293.672 190.637 294.048 190.787 294.498 190.937C301.929 193.564 305.532 191.087 306.283 181.704C287.292 176.6 268.301 171.495 249.009 166.391C248.634 167.667 248.258 168.793 247.958 169.919C246.307 175.924 247.733 178.476 253.663 180.053C266.799 183.506 280.011 187.034 293.222 190.562Z" fill="white"/>
<path d="M250.66 211.355C230.993 197.093 209.075 190.187 185.505 190.712C159.908 191.313 137.313 200.02 118.472 216.685C113.293 221.188 108.489 226.218 103.76 231.097C101.883 233.049 100.006 235 98.0548 236.952L97.2291 236.276L96.4034 237.327C94.9772 239.204 93.4759 241.08 91.9746 242.957C88.7468 246.936 85.5191 251.064 82.7417 255.493C67.8039 278.988 62.5494 306.762 68.0291 333.635C73.5088 360.433 89.1222 384.003 112.017 399.841C129.432 411.927 150.299 418.307 171.693 418.307C174.695 418.307 177.623 418.157 180.625 417.932C205.096 415.905 227.991 405.471 245.181 388.657C246.982 386.855 248.859 384.979 250.585 383.177C253.137 380.55 255.765 377.847 258.467 375.295C274.08 360.808 284.739 343.243 290.144 322.975C301.103 282.066 284.89 236.126 250.66 211.355ZM84.9936 271.782C84.243 275.46 83.4924 279.213 82.6666 282.966C82.5916 283.267 82.3664 283.717 81.6908 284.468C81.0152 285.218 80.3397 285.894 79.6641 286.494C80.9402 281.54 82.6666 276.661 84.9936 271.782ZM76.3613 321.474C76.2862 320.649 76.2111 319.973 76.2111 319.222C76.1361 314.718 76.1361 309.839 76.2862 305.035C76.2862 304.435 76.7366 303.609 77.262 303.008C78.6882 301.507 80.1145 300.006 81.6908 298.505L81.8409 299.631C82.3664 304.66 82.8918 309.389 83.3422 314.193C83.3422 314.268 83.2672 314.568 83.1921 314.643C81.1654 316.745 79.0636 318.847 76.8116 321.099L76.3613 321.474ZM82.9669 346.546C82.7417 346.771 82.5165 347.071 82.2913 347.296L81.8409 345.795C80.6399 341.666 79.514 337.763 78.388 333.935C78.388 333.785 78.5381 333.56 78.6132 333.484C80.715 331.308 82.8918 329.131 85.1438 326.879L85.8193 326.203C85.9695 326.654 86.1196 327.104 86.1947 327.554C86.9453 330.032 87.6209 332.359 88.8219 334.535C90.7736 338.138 90.3232 340.315 87.0954 342.717C85.6692 343.618 84.3931 344.969 82.9669 346.546ZM101.883 364.711C99.7813 366.813 97.6795 368.915 95.5777 370.941L86.7201 357.13L95.2024 348.572C95.7278 349.398 96.2533 350.149 96.7787 350.974C98.5802 353.677 100.382 356.454 102.258 359.231L102.333 359.382C103.234 360.733 103.985 361.784 103.91 362.159C103.985 362.609 103.009 363.51 101.883 364.711ZM111.191 386.855L102.559 378.223L111.116 369.665L119.748 378.298L111.191 386.855ZM138.139 391.809C135.737 394.211 133.335 396.689 130.858 399.016C130.708 399.016 130.407 399.016 130.332 398.94C127.255 397.289 124.252 395.638 121.024 393.911L119.448 393.085L128.08 384.378L139.04 390.833L138.139 391.809ZM161.709 399.916C159.382 402.243 157.205 404.495 154.953 406.672L154.803 406.747C150.6 405.771 146.471 404.72 141.967 403.594L140.766 403.294L141.667 402.393C144.219 399.766 146.471 397.589 148.798 395.337C148.873 395.262 149.174 395.187 149.174 395.187C153.002 396.388 156.83 397.589 160.808 398.94L162.235 399.391L161.709 399.916ZM180.475 407.648C180.325 407.798 180.1 407.948 180.1 407.948C176.197 408.098 172.218 408.173 168.315 408.248H167.489L167.864 407.873C169.891 405.846 171.918 403.82 173.945 401.793C174.02 401.718 174.245 401.643 174.395 401.643C177.848 401.868 181.301 402.093 184.979 402.393L185.505 402.468C183.853 404.195 182.127 405.921 180.475 407.648ZM197.815 404.345C198.641 403.519 199.466 402.694 200.292 401.943C200.367 401.868 200.592 401.718 201.343 401.493C205.171 400.592 209.075 399.766 212.903 398.94C208.024 401.342 202.995 403.144 197.815 404.345ZM254.714 365.011C236.698 382.727 213.053 392.485 187.907 392.485C187.456 392.485 187.081 392.485 186.631 392.485C161.034 392.185 136.863 381.826 118.622 363.285C101.057 345.495 91.5242 321.474 91.7494 295.802C91.9746 270.13 101.958 246.26 119.823 228.62C138.139 210.604 162.16 200.696 187.681 200.696C187.907 200.696 188.057 200.696 188.282 200.696C213.954 200.846 238.049 211.055 256.14 229.446C293.072 267.053 292.471 327.855 254.714 365.011Z" fill="#FFD987"/>
<path d="M188.056 213.157C187.831 213.157 187.606 213.157 187.381 213.157C165.312 213.157 144.594 221.639 129.056 237.102C113.067 252.941 104.209 274.109 104.209 296.553C104.134 318.772 112.767 339.715 128.38 355.403C144.144 371.242 165.162 380.024 187.456 380.024C187.531 380.024 187.531 380.024 187.606 380.024C209.9 380.024 230.843 371.317 246.681 355.553C262.37 339.94 271.002 319.072 271.077 296.853C271.152 274.559 262.595 253.691 247.057 238.003C231.293 222.164 210.35 213.307 188.056 213.157ZM239.55 348.497C225.213 362.835 206.372 370.041 187.531 370.041C168.84 370.041 150.149 362.985 135.887 348.723C107.062 320.123 107.062 273.358 135.736 244.534C149.473 230.797 167.789 223.14 187.456 223.14H187.531C207.198 223.14 225.663 230.722 239.4 244.534C268.15 273.133 268.225 319.823 239.55 348.497Z" fill="white"/>
<path d="M140.092 296.628L190.009 346.546L239.927 296.628L190.009 246.71L140.092 296.628ZM190.009 330.182L156.456 296.628L190.009 263.074L223.563 296.628L190.009 330.182Z" fill="white"/>
<path d="M212.977 296.627L190.008 273.658L166.963 296.627H212.977Z" fill="white"/>
</svg>
