<svg xmlns="http://www.w3.org/2000/svg" xmlns:xlink="http://www.w3.org/1999/xlink" width="202.552" height="209.716" viewBox="0 0 202.552 209.716">
  <defs>
    <clipPath id="clip-path">
      <rect id="Rectangle_605" data-name="Rectangle 605" width="202.552" height="209.716" fill="none"/>
    </clipPath>
  </defs>
  <g id="Group_2216" data-name="Group 2216" clip-path="url(#clip-path)">
    <path id="Path_2475" data-name="Path 2475" d="M85.965,196.176H75.673a5.689,5.689,0,1,1,0-11.379H192.507a13.391,13.391,0,0,1,12.987,10.078l-2.021.516a11.306,11.306,0,0,0-10.966-8.509H75.673a3.6,3.6,0,1,0,0,7.208H85.965Z" transform="translate(-45.662 -120.574)" fill="#161615"/>
    <path id="Path_2476" data-name="Path 2476" d="M226.687,100.052a27.627,27.627,0,0,0-24.8,39.787h49.609a27.627,27.627,0,0,0-24.8-39.787" transform="translate(-129.882 -65.281)" fill="#fff"/>
    <path id="Path_2477" data-name="Path 2477" d="M250.184,138.925H199.276l-.286-.583a28.388,28.388,0,0,1-2.927-12.623,28.667,28.667,0,1,1,57.334,0,28.387,28.387,0,0,1-2.927,12.623Zm-49.6-2.085h48.293a26.313,26.313,0,0,0,2.435-11.121,26.582,26.582,0,0,0-53.163,0,26.313,26.313,0,0,0,2.435,11.121" transform="translate(-127.925 -63.323)" fill="#161615"/>
    <path id="Path_2478" data-name="Path 2478" d="M208.919,77.581a33.051,33.051,0,0,0-29.673,47.6h59.347a33.051,33.051,0,0,0-29.673-47.6" transform="translate(-114.751 -50.619)" fill="#fff"/>
    <path id="Path_2479" data-name="Path 2479" d="M237.284,124.263H176.638l-.286-.583a33.754,33.754,0,0,1-3.48-15.01,34.089,34.089,0,1,1,68.178,0,33.749,33.749,0,0,1-3.48,15.01Zm-59.339-2.085h58.034a31.676,31.676,0,0,0,2.987-13.508,32,32,0,1,0-64.008,0,31.681,31.681,0,0,0,2.987,13.508" transform="translate(-112.793 -48.661)" fill="#161615"/>
    <path id="Path_2480" data-name="Path 2480" d="M244.178,127.5a18.3,18.3,0,0,0-14.237,29.814h28.475A18.3,18.3,0,0,0,244.178,127.5" transform="translate(-147.373 -83.193)" fill="#b2935a"/>
    <path id="Path_2481" data-name="Path 2481" d="M224.246,100.522a24.878,24.878,0,0,0-19.35,40.52h38.7a24.878,24.878,0,0,0-19.35-40.52" transform="translate(-130.078 -65.587)" fill="#b2935a"/>
    <path id="Path_2482" data-name="Path 2482" d="M199.457,314.793H83.386a13.418,13.418,0,0,1-13.4-13.4v-76.45h2.085v76.45a11.33,11.33,0,0,0,11.318,11.317H199.457a11.33,11.33,0,0,0,11.317-11.317V216a2.384,2.384,0,0,0-2.381-2.381H83.386v-2.085H208.393A4.471,4.471,0,0,1,212.86,216V301.39a13.418,13.418,0,0,1-13.4,13.4" transform="translate(-45.662 -138.022)" fill="#161615"/>
    <path id="Path_2483" data-name="Path 2483" d="M199.457,308.026H83.386a13.418,13.418,0,0,1-13.4-13.4V201.167h2.085v93.457a11.33,11.33,0,0,0,11.318,11.317H199.457a11.33,11.33,0,0,0,11.317-11.317V208.88h2.085v85.743a13.418,13.418,0,0,1-13.4,13.4" transform="translate(-45.662 -131.255)" fill="#161615"/>
    <path id="Path_2484" data-name="Path 2484" d="M371.118,346.308H327.725a15.378,15.378,0,0,1,0-30.756h43.393Zm-43.393-28.671a13.293,13.293,0,0,0,0,26.586h41.308V317.637Z" transform="translate(-203.796 -205.887)" fill="#161615"/>
    <path id="Path_2485" data-name="Path 2485" d="M314.044,201.893a10.4,10.4,0,1,1,10.4-10.4,10.408,10.408,0,0,1-10.4,10.4m0-19.75A9.354,9.354,0,1,0,323.4,191.5a9.364,9.364,0,0,0-9.353-9.354" transform="translate(-198.12 -118.162)" fill="#161615"/>
    <path id="Path_2486" data-name="Path 2486" d="M438.574,420.768a38.418,38.418,0,1,1-38.418-38.418,38.418,38.418,0,0,1,38.418,38.418" transform="translate(-236.022 -249.471)" fill="#b2935a"/>
    <path id="Path_2487" data-name="Path 2487" d="M405.56,461.713a35.54,35.54,0,1,1,35.54-35.539,35.58,35.58,0,0,1-35.54,35.539m0-70.384A34.844,34.844,0,1,0,440.4,426.174a34.884,34.884,0,0,0-34.845-34.845" transform="translate(-241.426 -254.876)" fill="#fff"/>
    <path id="Path_2488" data-name="Path 2488" d="M433.34,483.588,419.823,470.07l2.7-2.7,10.815,10.815,20.243-20.243,2.7,2.7Z" transform="translate(-273.921 -298.79)" fill="#fff"/>
    <path id="Path_2489" data-name="Path 2489" d="M348.855,354.737a6.1,6.1,0,1,1,6.1-6.1,6.111,6.111,0,0,1-6.1,6.1m0-10.122a4.019,4.019,0,1,0,4.018,4.019,4.023,4.023,0,0,0-4.018-4.019" transform="translate(-223.634 -223.49)" fill="#161615"/>
    <path id="Path_2490" data-name="Path 2490" d="M202.287,463.235c-4.477,4.584-17.931-1.288-30.04-13.114s-18.3-25.138-13.819-29.722,17.931,1.288,30.04,13.114,18.3,25.138,13.819,29.722" transform="translate(-102.419 -273.28)" fill="#fff"/>
    <path id="Path_2491" data-name="Path 2491" d="M195.98,463.883a21.119,21.119,0,0,1-8.169-2.044c-5.788-2.527-12.249-7.115-18.193-12.921-12.715-12.418-18.793-26.122-13.836-31.2,2.49-2.549,7.221-2.487,13.321.176,5.788,2.527,12.249,7.115,18.193,12.921,12.715,12.419,18.792,26.122,13.836,31.2a6.925,6.925,0,0,1-5.152,1.868m-35.042-45.949a4.952,4.952,0,0,0-3.664,1.245c-3.566,3.65,1.129,15.872,13.8,28.248,5.768,5.633,12.008,10.073,17.571,12.5,5.172,2.258,9.18,2.488,10.995.63,3.566-3.65-1.13-15.872-13.8-28.248-5.768-5.633-12.008-10.073-17.571-12.5a19.233,19.233,0,0,0-7.33-1.875" transform="translate(-100.519 -271.332)" fill="#161615"/>
    <path id="Path_2492" data-name="Path 2492" d="M187.062,466.161l-8.11,8.3c-4.477,4.584-17.926-1.294-30.034-13.12s-18.3-25.133-13.824-29.716l8.111-8.3c-4.477,4.584,1.71,17.9,13.819,29.722s25.563,17.7,30.04,13.114" transform="translate(-87.193 -276.206)" fill="#fff"/>
    <path id="Path_2493" data-name="Path 2493" d="M172.683,475.664c-6.575,0-16.8-5.575-26.393-14.942-12.715-12.419-18.8-26.119-13.842-31.191l8.11-8.3h0l1.492,1.457c-3.565,3.65,1.13,15.872,13.8,28.248,5.768,5.633,12.008,10.073,17.571,12.5,5.172,2.258,9.18,2.488,10.995.63l1.492,1.457-8.11,8.3a6.884,6.884,0,0,1-5.115,1.839m-33.847-49.689-4.9,5.013c-3.562,3.647,1.136,15.866,13.807,28.242s25,16.785,28.56,13.137l4.871-4.988a20.349,20.349,0,0,1-8.59-2.035c-5.788-2.527-12.249-7.115-18.193-12.921-9.792-9.563-15.647-19.889-15.558-26.449" transform="translate(-85.295 -274.838)" fill="#161615"/>
    <path id="Path_2494" data-name="Path 2494" d="M483.251,211.806c2.491,2.433-.7,9.743-7.126,16.322s-13.659,9.941-16.149,7.509.7-9.743,7.125-16.323,13.659-9.941,16.15-7.508" transform="translate(-299.566 -137.68)" fill="#fff"/>
    <path id="Path_2495" data-name="Path 2495" d="M460.3,235.512a4.145,4.145,0,0,1-3-1.074c-1.537-1.5-1.54-4.26-.008-7.769a39.46,39.46,0,0,1,16.973-17.378c3.473-1.614,6.231-1.676,7.767-.176s1.54,4.26.008,7.769a35.5,35.5,0,0,1-7.116,10.027c-5.3,5.425-10.895,8.6-14.62,8.6m18.717-25.4a9.81,9.81,0,0,0-3.876,1.071A37.432,37.432,0,0,0,459.2,227.5c-1.127,2.581-1.294,4.616-.447,5.443,1.778,1.736,8.432-1.1,14.676-7.491a33.386,33.386,0,0,0,6.7-9.4c1.127-2.581,1.294-4.616.447-5.443h0a2.169,2.169,0,0,0-1.555-.5" transform="translate(-297.621 -135.735)" fill="#161615"/>
    <path id="Path_2496" data-name="Path 2496" d="M484.84,213.292l4.512,4.407c2.491,2.432-.7,9.74-7.129,16.319s-13.656,9.944-16.146,7.512l-4.512-4.407c2.49,2.432,9.724-.929,16.149-7.509s9.617-13.889,7.126-16.322" transform="translate(-301.156 -139.166)" fill="#fff"/>
    <path id="Path_2497" data-name="Path 2497" d="M466.988,241.958a4.148,4.148,0,0,1-3.007-1.082l-4.511-4.406h0l1.457-1.492,0,0c1.781,1.731,8.432-1.1,14.673-7.493a33.4,33.4,0,0,0,6.7-9.4c1.127-2.581,1.293-4.616.446-5.443l1.457-1.492h0l4.511,4.406c1.537,1.5,1.539,4.26.007,7.768A39.5,39.5,0,0,1,471.747,240.7a11.651,11.651,0,0,1-4.759,1.259m-3.507-4.485,1.957,1.912c.847.827,2.876.612,5.429-.576a37.477,37.477,0,0,0,15.942-16.322c1.127-2.58,1.295-4.614.448-5.441l-1.95-1.905a13.351,13.351,0,0,1-1.1,3.776,35.5,35.5,0,0,1-7.116,10.027c-4.84,4.955-9.928,8.033-13.612,8.529" transform="translate(-299.789 -137.766)" fill="#161615"/>
    <path id="Path_2498" data-name="Path 2498" d="M25.364,294.434A25.364,25.364,0,1,1,50.728,269.07a25.393,25.393,0,0,1-25.364,25.364m0-49.685A24.321,24.321,0,1,0,49.685,269.07a24.349,24.349,0,0,0-24.321-24.321" transform="translate(0 -159.01)" fill="#161615"/>
    <path id="Path_2499" data-name="Path 2499" d="M18.168,309.194a19.55,19.55,0,0,1,.318-14.478l.959.409a18.506,18.506,0,0,0-.3,13.7Z" transform="translate(-11.048 -192.293)" fill="#161615"/>
    <path id="Path_2500" data-name="Path 2500" d="M45.189,358.665a19.465,19.465,0,0,1-14.8-6.819l.792-.678a18.423,18.423,0,0,0,14.012,6.454,18.628,18.628,0,0,0,2.828-.215l.159,1.03a19.687,19.687,0,0,1-2.987.228" transform="translate(-19.825 -229.126)" fill="#161615"/>
    <path id="Path_2501" data-name="Path 2501" d="M93,346.949l-.386-.969a18.49,18.49,0,0,0,10.444-10.657l.977.366A19.536,19.536,0,0,1,93,346.949" transform="translate(-60.43 -218.787)" fill="#161615"/>
    <path id="Path_2502" data-name="Path 2502" d="M80.908,274.082A18.464,18.464,0,0,0,58.69,262.309l-.27-1.007a19.506,19.506,0,0,1,23.473,12.439Z" transform="translate(-38.117 -170.058)" fill="#161615"/>
    <path id="Path_2503" data-name="Path 2503" d="M158.855,117.917q-.37-.026-.737-.055l.817-10.394c.212.017.426.032.641.047Zm15.187-1.227-2.21-10.189q.3-.065.6-.135l2.355,10.157q-.372.087-.746.168m-30.578-1.531c-.241-.073-.481-.147-.72-.222l3.133-9.944q.3.094.6.185Zm45.489-3.907-4.859-9.225q.274-.144.546-.292l4.981,9.159q-.333.181-.669.358m-59.933-2.627q-.32-.2-.636-.406l5.662-8.754q.263.17.529.337Zm72.842-6.568-7.122-7.614q.226-.212.449-.426l7.225,7.517q-.275.264-.553.524M116.88,98.277q-.255-.291-.506-.585l7.939-6.758q.2.234.4.465Zm95.007-8.5-8.879-5.464q.161-.263.319-.528l8.957,5.337q-.2.329-.4.655M108.177,84.94q-.163-.348-.321-.7l9.5-4.3q.127.28.259.56ZM218.3,75.249l-10.021-2.877q.087-.3.171-.608l10.053,2.763q-.1.362-.2.722M103.4,69.842q-.066-.371-.128-.742l10.286-1.706q.051.31.106.62ZM220.61,59.572l-10.425-.138q0-.31,0-.622h10.426q0,.381,0,.76m-107.6-4.707-10.4-.783q.028-.376.061-.751l10.386.907q-.027.313-.051.627m96.964-.7q-.029-.31-.062-.617l10.367-1.108q.04.378.076.758ZM115.644,42l-9.857-3.4q.122-.353.248-.705l9.818,3.506q-.106.3-.21.6m91.368-.551q-.11-.29-.224-.579l9.7-3.829q.139.353.275.709Zm-85.505-11.1L112.93,24.42q.215-.312.435-.621l8.5,6.044q-.179.252-.354.506m79.264-.366q-.183-.251-.371-.5l8.324-6.278q.228.3.452.609Zm-70.451-9.124-6.533-8.126q.3-.237.593-.471l6.429,8.208q-.246.193-.489.388m61.384-.3q-.246-.2-.495-.388l6.381-8.246q.3.231.594.465Zm-50.2-6.331-4.03-9.616q.348-.146.7-.288l3.906,9.666q-.29.117-.577.238m38.969-.356q-.287-.122-.576-.241l3.958-9.646q.352.145.7.294ZM154.215,10.7,152.629.4q.365-.056.733-.109l1.487,10.32q-.317.046-.634.094m13.656-.272q-.309-.041-.618-.078L168.487,0q.377.045.753.095Z" transform="translate(-66.95)" fill="#b2935a"/>
    <path id="Path_2514" data-name="Path 2514" d="M146.081,61.9c-2.54,1.3-7.4-3.079-10.846-9.79s-4.182-13.213-1.641-14.518,7.4,3.079,10.846,9.79S148.621,60.6,146.081,61.9" transform="translate(-86.178 -24.378)" fill="#fff"/>
    <path id="Path_2515" data-name="Path 2515" d="M143.127,61.225c-3.477,0-7.938-5.068-10.775-10.591a29.316,29.316,0,0,1-3.175-9.645c-.362-3.2.343-5.433,1.984-6.276s3.864-.119,6.258,2.042a29.321,29.321,0,0,1,5.992,8.2,29.317,29.317,0,0,1,3.175,9.646c.362,3.2-.343,5.433-1.984,6.276a3.186,3.186,0,0,1-1.475.35M132.642,36.452a1.139,1.139,0,0,0-.527.115c-.781.4-1.112,2.005-.865,4.187a27.219,27.219,0,0,0,2.958,8.927c3.573,6.956,7.907,10.126,9.442,9.339.781-.4,1.112-2.005.865-4.187a27.205,27.205,0,0,0-2.958-8.927,27.2,27.2,0,0,0-5.534-7.6,6.041,6.041,0,0,0-3.381-1.85" transform="translate(-84.224 -22.425)" fill="#161615"/>
    <path id="Path_2516" data-name="Path 2516" d="M137.442,62.332l-4.6,2.364C130.3,66,125.445,61.616,122,54.9s-4.185-13.211-1.645-14.516l4.6-2.364c-2.54,1.3-1.806,7.807,1.641,14.518s8.306,11.095,10.846,9.79" transform="translate(-77.54 -24.809)" fill="#fff"/>
    <path id="Path_2517" data-name="Path 2517" d="M129.889,64.231c-3.476,0-7.937-5.069-10.774-10.592a29.335,29.335,0,0,1-3.176-9.645c-.363-3.2.341-5.432,1.983-6.276l4.6-2.364h0l.953,1.855h0c-.779.4-1.11,2.006-.863,4.186a27.212,27.212,0,0,0,2.957,8.927c3.572,6.953,7.9,10.124,9.44,9.34h0l.953,1.855,0,0-4.6,2.363a3.183,3.183,0,0,1-1.473.35m-9.354-25.51-1.66.853c-.78.4-1.111,2-.864,4.186a27.24,27.24,0,0,0,2.96,8.927c3.573,6.956,7.908,10.126,9.439,9.34l1.659-.852c-2.948-1.569-6.144-5.6-8.354-9.9a29.3,29.3,0,0,1-3.174-9.645,11.743,11.743,0,0,1-.005-2.91" transform="translate(-75.585 -23.068)" fill="#161615"/>
  </g>
</svg>
